<svg xmlns="http://www.w3.org/2000/svg" viewBox="0 0 1024 1024" width="1024" height="1024">
  <path fill="#0B2A1D" fill-rule="evenodd" d="M 549 514 L 545 514 L 544 513 L 543 514 L 475 514 L 473 516 L 473 525 L 474 526 L 474 529 L 476 535 L 480 542 L 492 553 L 491 554 L 489 553 L 488 554 L 441 554 L 440 553 L 439 554 L 429 554 L 428 555 L 423 555 L 419 557 L 416 561 L 418 567 L 431 572 L 436 572 L 437 573 L 448 574 L 449 575 L 457 575 L 458 576 L 469 576 L 470 577 L 481 577 L 482 578 L 501 578 L 502 579 L 502 685 L 501 686 L 500 685 L 492 685 L 491 686 L 490 685 L 488 686 L 473 686 L 472 687 L 472 693 L 475 694 L 480 694 L 481 693 L 482 694 L 485 693 L 489 693 L 490 694 L 527 694 L 528 693 L 531 694 L 534 693 L 536 694 L 548 694 L 550 693 L 552 689 L 550 686 L 546 686 L 545 685 L 544 686 L 521 686 L 520 685 L 520 579 L 521 578 L 541 578 L 542 577 L 552 577 L 553 576 L 565 576 L 566 575 L 573 575 L 574 574 L 580 574 L 581 573 L 592 572 L 604 568 L 608 563 L 606 558 L 604 556 L 598 555 L 597 554 L 532 554 L 531 553 L 536 550 L 543 542 L 548 533 L 549 527 L 550 526 L 550 516 Z M 710 488 L 699 485 L 691 488 L 686 494 L 684 500 L 681 519 L 679 524 L 678 533 L 676 538 L 676 543 L 673 552 L 673 556 L 672 557 L 672 561 L 671 562 L 671 566 L 670 567 L 670 571 L 669 572 L 666 587 L 662 591 L 659 592 L 611 592 L 603 598 L 601 602 L 601 611 L 602 614 L 608 620 L 616 621 L 617 622 L 617 625 L 616 626 L 614 637 L 612 641 L 610 652 L 608 656 L 608 659 L 607 660 L 605 671 L 603 675 L 602 682 L 600 686 L 600 690 L 606 692 L 608 691 L 611 677 L 615 666 L 620 643 L 622 639 L 624 628 L 626 623 L 628 621 L 631 622 L 632 621 L 635 621 L 636 622 L 637 621 L 638 622 L 639 621 L 642 621 L 643 622 L 644 621 L 651 621 L 652 622 L 653 621 L 656 622 L 657 621 L 658 622 L 661 621 L 662 622 L 663 621 L 669 622 L 671 621 L 673 625 L 673 628 L 677 639 L 678 646 L 682 657 L 684 668 L 688 678 L 690 689 L 692 692 L 699 690 L 698 683 L 695 676 L 695 673 L 693 669 L 692 662 L 690 658 L 690 655 L 688 651 L 687 644 L 684 637 L 684 634 L 682 630 L 682 626 L 680 621 L 691 613 L 695 606 L 697 600 L 697 596 L 699 590 L 699 585 L 702 576 L 702 572 L 703 571 L 703 567 L 704 566 L 704 562 L 705 561 L 705 557 L 707 551 L 707 546 L 710 537 L 710 532 L 712 527 L 712 523 L 713 522 L 713 518 L 714 517 L 714 513 L 716 507 L 716 497 Z M 314 487 L 311 489 L 307 496 L 307 499 L 306 500 L 307 502 L 306 504 L 309 513 L 309 518 L 311 523 L 312 533 L 313 534 L 314 542 L 316 547 L 316 551 L 317 552 L 318 561 L 320 566 L 321 575 L 323 580 L 324 589 L 326 594 L 326 598 L 331 611 L 336 616 L 344 621 L 340 631 L 339 638 L 334 652 L 333 659 L 330 666 L 330 669 L 328 673 L 328 676 L 326 680 L 324 690 L 330 692 L 332 691 L 333 689 L 335 679 L 337 675 L 337 672 L 339 668 L 339 665 L 341 661 L 341 658 L 343 654 L 343 651 L 345 647 L 345 644 L 351 626 L 351 623 L 353 621 L 378 621 L 379 622 L 381 621 L 387 621 L 388 622 L 391 621 L 392 622 L 396 622 L 399 629 L 399 633 L 402 641 L 402 644 L 403 645 L 405 656 L 407 660 L 408 667 L 410 671 L 410 675 L 412 679 L 412 683 L 414 689 L 416 692 L 422 690 L 423 688 L 421 684 L 421 680 L 419 676 L 419 673 L 417 669 L 417 665 L 415 661 L 415 658 L 413 654 L 411 643 L 409 639 L 408 632 L 405 624 L 406 621 L 411 621 L 415 619 L 419 615 L 421 610 L 421 603 L 420 600 L 416 595 L 410 592 L 366 592 L 365 591 L 362 591 L 358 587 L 356 582 L 356 578 L 354 574 L 354 569 L 352 564 L 351 555 L 348 546 L 347 537 L 345 533 L 345 528 L 343 523 L 343 519 L 341 514 L 341 510 L 340 509 L 340 505 L 339 504 L 337 494 L 333 489 L 324 485 L 320 485 Z M 509 252 L 508 253 L 508 333 L 507 335 L 502 339 L 499 346 L 499 353 L 497 355 L 487 360 L 478 369 L 473 377 L 468 392 L 468 404 L 470 406 L 479 406 L 480 405 L 481 406 L 491 406 L 493 408 L 495 414 L 501 420 L 508 423 L 517 423 L 524 420 L 530 414 L 532 408 L 534 406 L 544 406 L 545 405 L 549 406 L 550 405 L 554 405 L 555 402 L 555 392 L 554 391 L 554 387 L 552 381 L 544 367 L 534 358 L 527 355 L 525 353 L 526 350 L 525 343 L 523 339 L 520 336 L 516 334 L 516 253 L 515 252 Z M 317 495 L 321 493 L 324 493 L 326 494 L 330 499 L 331 505 L 332 506 L 332 510 L 334 515 L 335 524 L 337 529 L 340 548 L 341 549 L 341 552 L 343 557 L 343 561 L 345 566 L 345 571 L 347 575 L 348 584 L 349 585 L 350 591 L 353 595 L 358 599 L 364 599 L 365 600 L 368 599 L 375 599 L 376 600 L 379 600 L 380 599 L 381 600 L 383 599 L 384 600 L 407 600 L 412 604 L 413 607 L 412 610 L 410 612 L 404 614 L 352 614 L 351 613 L 345 612 L 337 605 L 335 599 L 335 596 L 334 595 L 334 591 L 333 590 L 332 583 L 331 582 L 331 578 L 330 577 L 328 564 L 326 559 L 324 545 L 322 541 L 322 536 L 320 531 L 319 522 L 318 521 L 316 508 L 315 507 L 315 498 Z M 703 494 L 708 500 L 708 505 L 707 506 L 706 516 L 704 520 L 704 525 L 703 526 L 702 535 L 700 540 L 700 544 L 699 545 L 699 549 L 698 550 L 698 554 L 697 555 L 694 574 L 692 579 L 690 593 L 686 605 L 680 611 L 671 614 L 616 614 L 611 612 L 609 609 L 609 604 L 613 600 L 627 600 L 628 599 L 630 600 L 631 599 L 633 600 L 634 599 L 639 599 L 640 600 L 643 599 L 645 600 L 659 600 L 660 599 L 665 599 L 670 596 L 675 586 L 676 577 L 678 572 L 679 563 L 680 562 L 681 554 L 682 553 L 683 545 L 684 544 L 684 540 L 686 535 L 686 531 L 687 530 L 687 526 L 688 525 L 688 521 L 689 520 L 689 516 L 690 515 L 692 502 L 694 497 L 697 494 Z M 226 424 L 224 426 L 222 432 L 221 441 L 219 446 L 217 465 L 216 466 L 216 474 L 215 475 L 215 494 L 214 495 L 215 497 L 214 498 L 215 530 L 216 531 L 216 539 L 217 540 L 217 547 L 218 548 L 220 564 L 221 565 L 223 576 L 225 580 L 226 587 L 231 602 L 233 605 L 234 610 L 251 646 L 273 680 L 289 700 L 293 698 L 295 695 L 293 691 L 282 678 L 273 664 L 270 661 L 257 640 L 247 620 L 247 618 L 240 603 L 232 579 L 231 572 L 230 571 L 230 567 L 229 566 L 227 553 L 226 552 L 225 539 L 224 538 L 223 513 L 222 512 L 223 478 L 224 477 L 225 459 L 226 458 L 227 447 L 228 446 L 228 443 L 229 442 L 229 439 L 232 430 L 232 425 L 230 424 Z M 799 424 L 795 424 L 792 426 L 792 430 L 794 434 L 794 438 L 795 439 L 795 443 L 796 444 L 796 448 L 798 454 L 798 459 L 799 460 L 800 478 L 801 479 L 801 492 L 802 493 L 801 496 L 802 497 L 801 529 L 800 530 L 799 545 L 798 546 L 798 551 L 797 552 L 797 557 L 795 562 L 795 566 L 791 578 L 791 581 L 789 585 L 789 588 L 787 591 L 786 597 L 784 600 L 783 605 L 781 608 L 777 620 L 760 652 L 755 658 L 754 661 L 742 678 L 729 693 L 728 695 L 729 697 L 732 699 L 736 699 L 748 684 L 760 666 L 763 663 L 771 648 L 773 646 L 788 615 L 801 576 L 801 572 L 802 571 L 802 568 L 804 563 L 804 559 L 805 558 L 806 546 L 807 545 L 807 538 L 808 537 L 808 529 L 809 528 L 809 479 L 808 478 L 808 468 L 807 467 L 807 460 L 806 459 L 805 448 L 804 447 L 803 438 L 802 437 L 801 429 Z M 476 394 L 481 379 L 485 373 L 492 366 L 504 360 L 514 359 L 515 360 L 522 361 L 528 364 L 538 373 L 545 385 L 546 391 L 547 392 L 547 397 L 546 398 L 477 398 L 476 397 Z M 581 759 L 576 759 L 575 758 L 574 759 L 569 759 L 568 760 L 564 760 L 563 761 L 559 761 L 553 763 L 554 770 L 555 771 L 555 775 L 556 776 L 556 779 L 559 788 L 560 797 L 562 802 L 562 806 L 585 802 L 589 800 L 594 794 L 595 791 L 594 790 L 595 789 L 593 783 L 590 780 L 586 778 L 589 771 L 588 765 L 586 762 Z M 481 523 L 483 521 L 491 521 L 492 522 L 493 521 L 495 522 L 498 522 L 499 521 L 502 521 L 503 522 L 504 521 L 534 521 L 535 522 L 539 522 L 541 521 L 542 522 L 542 525 L 540 531 L 535 539 L 527 547 L 520 551 L 507 552 L 498 548 L 489 540 L 483 530 Z M 447 193 L 455 234 L 461 234 L 464 233 L 462 223 L 461 222 L 461 217 L 462 216 L 467 217 L 479 230 L 489 229 L 489 228 L 476 214 L 483 206 L 483 199 L 480 193 L 474 190 L 461 190 L 460 191 L 455 191 L 454 192 Z M 684 237 L 681 242 L 670 255 L 668 259 L 659 270 L 659 272 L 665 276 L 682 253 L 683 254 L 683 260 L 682 261 L 682 266 L 681 267 L 680 275 L 683 278 L 686 278 L 692 276 L 699 272 L 702 273 L 697 281 L 689 291 L 687 292 L 687 294 L 693 300 L 695 296 L 717 267 L 718 263 L 713 259 L 710 259 L 699 265 L 697 265 L 689 269 L 688 267 L 689 266 L 689 260 L 690 259 L 690 253 L 691 252 L 692 241 Z M 429 563 L 430 562 L 592 562 L 593 563 L 592 564 L 586 564 L 585 565 L 580 565 L 579 566 L 574 566 L 573 567 L 567 567 L 566 568 L 544 569 L 543 570 L 524 570 L 523 571 L 520 571 L 519 570 L 517 571 L 498 571 L 497 570 L 466 569 L 465 568 L 457 568 L 456 567 L 450 567 L 449 566 L 430 564 Z M 370 227 L 362 227 L 341 239 L 364 275 L 366 275 L 372 271 L 364 258 L 375 251 L 379 245 L 379 237 L 378 234 L 374 229 Z M 320 259 L 310 263 L 300 271 L 297 275 L 308 289 L 320 302 L 323 307 L 325 308 L 329 305 L 331 302 L 321 290 L 332 281 L 335 272 L 333 266 L 328 261 L 323 259 Z M 763 308 L 757 311 L 734 330 L 729 333 L 729 336 L 734 340 L 744 331 L 752 326 L 753 324 L 755 325 L 744 357 L 749 363 L 752 360 L 759 357 L 785 340 L 781 333 L 757 349 L 755 348 L 759 339 L 764 322 L 766 319 L 766 317 L 768 315 Z M 558 188 L 550 200 L 548 205 L 540 217 L 535 227 L 538 229 L 542 230 L 544 228 L 546 223 L 549 220 L 552 220 L 557 222 L 561 222 L 565 224 L 567 234 L 574 235 L 575 236 L 576 235 L 575 227 L 574 226 L 574 222 L 573 221 L 573 217 L 571 212 L 571 208 L 569 203 L 569 199 L 568 198 L 567 191 Z M 527 765 L 526 766 L 520 766 L 521 797 L 520 800 L 515 804 L 507 804 L 501 799 L 500 797 L 500 766 L 492 766 L 491 767 L 491 796 L 495 806 L 499 809 L 507 812 L 519 811 L 523 809 L 528 803 L 529 800 L 529 792 L 530 791 L 529 790 L 529 769 L 528 768 L 529 767 Z M 275 295 L 272 299 L 271 303 L 289 316 L 296 323 L 297 327 L 295 331 L 292 334 L 288 336 L 284 336 L 278 333 L 257 317 L 256 317 L 252 322 L 252 324 L 276 342 L 282 343 L 283 344 L 292 343 L 297 340 L 301 336 L 302 333 L 304 331 L 304 328 L 305 327 L 304 320 L 302 316 L 298 312 Z M 635 737 L 624 738 L 615 743 L 611 749 L 611 757 L 614 762 L 619 765 L 640 764 L 643 768 L 643 771 L 639 775 L 630 778 L 628 777 L 626 778 L 623 777 L 621 779 L 622 784 L 626 786 L 629 785 L 631 786 L 632 785 L 635 785 L 641 783 L 646 780 L 649 777 L 652 768 L 649 760 L 643 756 L 636 755 L 631 757 L 622 757 L 620 755 L 619 752 L 623 747 L 628 745 L 635 745 L 637 746 L 639 744 L 639 739 Z M 419 200 L 391 211 L 392 217 L 401 235 L 401 237 L 403 240 L 403 242 L 407 251 L 413 250 L 416 248 L 434 242 L 433 235 L 430 235 L 413 242 L 410 237 L 409 232 L 412 230 L 426 226 L 426 223 L 424 219 L 421 219 L 406 225 L 404 223 L 404 221 L 401 215 L 402 214 L 412 211 L 422 206 Z M 797 363 L 785 367 L 778 371 L 771 373 L 757 380 L 768 406 L 775 403 L 772 398 L 771 393 L 767 385 L 773 381 L 776 380 L 778 382 L 781 391 L 783 394 L 783 396 L 785 399 L 791 396 L 787 384 L 784 379 L 785 376 L 791 373 L 794 374 L 795 378 L 801 390 L 801 393 L 808 390 L 804 378 Z M 394 740 L 386 743 L 378 750 L 374 759 L 374 770 L 377 777 L 384 784 L 395 788 L 401 788 L 404 787 L 407 784 L 406 779 L 405 778 L 401 780 L 394 780 L 388 777 L 385 774 L 382 765 L 383 763 L 383 759 L 385 755 L 390 750 L 395 748 L 400 748 L 406 751 L 410 755 L 412 761 L 418 759 L 419 758 L 419 755 L 417 751 L 411 745 L 403 741 Z M 240 350 L 232 357 L 229 363 L 228 372 L 230 376 L 234 380 L 239 382 L 242 382 L 243 381 L 246 381 L 249 379 L 259 369 L 262 368 L 265 371 L 266 375 L 262 382 L 259 385 L 253 388 L 253 390 L 256 393 L 259 393 L 263 391 L 269 385 L 273 377 L 273 370 L 271 366 L 266 361 L 260 360 L 259 361 L 256 361 L 242 374 L 239 374 L 235 369 L 236 364 L 243 356 L 246 355 L 246 353 L 243 350 Z M 600 198 L 598 206 L 601 206 L 610 210 L 598 242 L 599 244 L 606 246 L 613 225 L 615 222 L 617 214 L 618 213 L 621 213 L 628 216 L 631 216 L 632 215 L 633 209 Z M 445 758 L 444 759 L 444 763 L 443 764 L 443 767 L 440 776 L 440 781 L 439 782 L 435 801 L 441 802 L 442 803 L 446 803 L 451 805 L 455 805 L 460 807 L 464 807 L 466 802 L 465 799 L 455 798 L 454 797 L 450 797 L 445 795 L 446 794 L 446 789 L 447 788 L 447 785 L 450 776 L 450 772 L 451 771 L 451 767 L 452 766 L 452 762 L 453 761 L 453 759 Z M 739 283 L 709 312 L 714 318 L 715 318 L 744 290 L 744 288 Z M 317 713 L 312 715 L 309 719 L 309 726 L 315 731 L 319 731 L 324 728 L 326 724 L 326 720 L 325 718 L 321 714 L 318 714 Z M 708 713 L 703 715 L 699 721 L 700 726 L 706 731 L 710 731 L 712 730 L 715 727 L 717 722 L 716 721 L 716 718 L 712 714 L 709 714 Z M 367 235 L 371 239 L 371 244 L 366 249 L 360 252 L 354 244 L 353 240 L 359 236 Z M 322 267 L 326 271 L 327 274 L 318 284 L 315 284 L 309 277 L 308 274 L 314 269 L 319 267 Z M 567 786 L 572 784 L 582 784 L 586 788 L 586 790 L 585 792 L 580 796 L 570 797 L 569 796 Z M 457 199 L 461 197 L 470 197 L 474 200 L 474 205 L 471 208 L 460 210 L 458 207 Z M 501 409 L 502 406 L 524 406 L 525 407 L 519 414 L 516 415 L 508 415 Z M 580 769 L 580 773 L 577 776 L 572 778 L 567 778 L 566 779 L 565 778 L 563 772 L 563 769 L 565 767 L 576 766 Z M 560 199 L 562 202 L 562 207 L 563 208 L 563 213 L 564 214 L 563 215 L 555 214 L 553 212 Z M 507 346 L 509 343 L 511 342 L 515 342 L 518 346 L 518 350 L 517 351 L 508 351 L 507 350 Z M 754 324 L 755 323 L 756 324 L 755 325 Z M 701 272 L 702 271 L 703 272 L 702 273 Z M 682 253 L 683 252 L 684 253 L 683 254 Z"/>
</svg>
